<svg xmlns="http://www.w3.org/2000/svg" viewBox="0 0 512 148.0851"><title>facebook-logo</title><path d="M56.5529,36.8991c-5.6169,0-7.2457,2.4983-7.2457,7.991v9.1154h14.988l-1.4975,14.74h-13.49v44.708H31.3245V68.7452h-12.11v-14.74h12.11v-8.867c0-14.8565,5.9966-22.7232,22.73-22.7232a85.0113,85.0113,0,0,1,10.4887.621V36.8991" fill="#004f9d"/><path d="M65.5441,81.8554c0-16.6093,7.8665-29.099,24.3517-29.099,8.9914,0,14.484,4.6234,17.1062,10.3641V54.0051H124.24v59.4406H107.002v-8.9839c-2.4981,5.7411-8.1148,10.233-17.1062,10.233-16.4852,0-24.3517-12.4825-24.3517-29.0924m17.9827.2484c0,8.8675,3.25,14.7325,11.6134,14.7325,7.37,0,11.1169-5.3684,11.1169-13.8557V80.7307c0-8.4944-3.747-13.8632-11.1169-13.8632-8.3633,0-11.6134,5.8726-11.6134,14.74Z" fill="#004f9d"/><path d="M161.695,52.7559c6.99,0,13.6147,1.4975,17.23,3.9958L174.93,69.49a28.2876,28.2876,0,0,0-11.9859-2.7462c-9.7437,0-13.9874,5.6167-13.9874,15.2363v3.4911c0,9.62,4.2437,15.2363,13.9874,15.2363A28.2892,28.2892,0,0,0,174.93,97.9611L178.9251,110.7c-3.6154,2.4979-10.24,3.9953-17.23,3.9953-21.1015,0-30.7211-11.3654-30.7211-29.5961V82.3521c0-18.2308,9.62-29.5962,30.7211-29.5962" fill="#004f9d"/><path d="M181.2991,85.9756V80.7311c0-16.8577,9.612-27.9747,29.2234-27.9747,18.4793,0,26.5943,11.241,26.5943,27.7264v9.4881H199.2817c.3725,8.1221,3.9953,11.7376,13.9872,11.7376a51.1841,51.1841,0,0,0,19.1074-3.6155l3.243,12.3582c-4.74,2.4983-14.484,4.368-23.1027,4.368-22.7229,0-31.2175-11.3578-31.2175-28.8436m17.9826-7.7428h21.73v-1.497c0-6.4936-2.622-11.6137-10.4887-11.6137-8.1221,0-11.2408,5.12-11.2408,13.1107" fill="#004f9d"/><path d="M303.8031,85.5953c0,16.6094-7.9907,29.1-24.4759,29.1-8.9914,0-15.2363-4.4995-17.7343-10.24v8.991H244.6108V24.1535l17.9827-1.6214V62.244c2.6222-5.244,8.3633-9.4876,16.7337-9.4876,16.4852,0,24.4759,12.4825,24.4759,29.0919m-17.9825-.3727c0-8.37-3.25-14.6081-11.862-14.6081-7.37,0-11.3651,5.2444-11.3651,13.7317v6.2453c0,8.4943,3.9953,13.7388,11.3651,13.7388,8.6116,0,11.862-6.2449,11.862-14.6153Z" fill="#004f9d"/><path d="M309.7922,85.2231v-2.995c0-17.106,9.7364-29.4717,29.5962-29.4717,19.8526,0,29.5961,12.3657,29.5961,29.4717v2.995c0,17.1131-9.7435,29.4717-29.5961,29.4717-19.86,0-29.5962-12.3586-29.5962-29.4717m41.21-4.2441c0-7.8662-3.25-14.1111-11.6136-14.1111-8.37,0-11.6135,6.2449-11.6135,14.1111v5.4928c0,7.8666,3.243,14.1115,11.6135,14.1115,8.3633,0,11.6136-6.2449,11.6136-14.1115Z" fill="#004f9d"/><path d="M374.9739,85.2231v-2.995c0-17.106,9.7364-29.4717,29.5961-29.4717,19.8526,0,29.5962,12.3657,29.5962,29.4717v2.995c0,17.1131-9.7436,29.4717-29.5962,29.4717-19.86,0-29.5961-12.3586-29.5961-29.4717m41.21-4.2441c0-7.8662-3.25-14.1111-11.6137-14.1111-8.37,0-11.6134,6.2449-11.6134,14.1111v5.4928c0,7.8666,3.243,14.1115,11.6134,14.1115,8.3633,0,11.6137-6.2449,11.6137-14.1115Z" fill="#004f9d"/><polyline points="458.883 82.352 476.618 54.005 495.725 54.005 477.114 83.353 496.47 113.446 477.37 113.446 458.883 84.354 458.883 113.446 440.901 113.446 440.901 24.161 458.883 22.532" fill="#004f9d"/></svg>