<svg xmlns="http://www.w3.org/2000/svg" viewBox="0 0 512 148.0851"><title>google-logo</title><path d="M107.5219,60.9414V73.7991H138.255c-.9408,7.2129-3.3451,12.4918-7.0038,16.2028-4.495,4.495-11.4987,9.4081-23.7293,9.4081C88.6012,99.41,73.81,84.148,73.81,65.2273s14.7915-34.1827,33.7122-34.1827a32.6783,32.6783,0,0,1,23.1544,9.199l9.0422-9.0422a44.3939,44.3939,0,0,0-32.1966-13.0668c-25.9244,0-47.72,21.1159-47.72,47.04s21.7954,47.04,47.72,47.04c14.0076,0,24.5656-4.6,32.8238-13.1713,8.4673-8.4673,11.1329-20.4364,11.1329-30.0536a41.3125,41.3125,0,0,0-.6795-8.0491Z" fill="#557ebf"/><path d="M189.8949,50.488c-16.7777,0-30.4717,12.7531-30.4717,30.3672,0,17.4572,13.694,30.3672,30.4717,30.3672s30.4718-12.8578,30.4718-30.3672C220.3667,63.2411,206.6727,50.488,189.8949,50.488Zm0,48.7652c-9.199,0-17.1436-7.5787-17.1436-18.398,0-10.9239,7.9446-18.3981,17.1436-18.3981s17.1436,7.4742,17.1436,18.3981C207.0385,91.6745,199.0939,99.2532,189.8949,99.2532Z" fill="#ea4535"/><path d="M339.2744,57.2827h-.47c-2.9793-3.5542-8.7286-6.7947-15.9938-6.7947-15.1575,0-28.381,13.2235-28.381,30.3672,0,17.039,13.2235,30.3672,28.381,30.3672,7.2651,0,13.0145-3.2406,15.9938-6.8993h.47v4.2336c0,11.6033-6.22,17.8231-16.2028,17.8231-8.1537,0-13.2236-5.8539-15.3143-10.8193l-11.6033,4.8086a28.9261,28.9261,0,0,0,26.9176,17.9276c15.6279,0,28.8514-9.199,28.8514-31.6216V52.056H339.2744ZM323.96,99.2532c-9.199,0-16.2028-7.84-16.2028-18.398,0-10.7148,7.0038-18.3981,16.2028-18.3981,9.0945,0,16.2028,7.84,16.2028,18.5026C340.2152,91.57,333.0546,99.2532,323.96,99.2532Z" fill="#557ebf"/><path d="M257.8422,50.488c-16.7778,0-30.4718,12.7531-30.4718,30.3672,0,17.4572,13.694,30.3672,30.4718,30.3672s30.4717-12.8578,30.4717-30.3672C288.3139,63.2411,274.62,50.488,257.8422,50.488Zm0,48.7652c-9.199,0-17.1436-7.5787-17.1436-18.398,0-10.9239,7.9446-18.3981,17.1436-18.3981s17.1436,7.4742,17.1436,18.3981C274.9858,91.6745,267.0412,99.2532,257.8422,99.2532Z" fill="#f9bc15"/><path d="M362.3764,19.389h13.1191v91.8334H362.3764Z" fill="#36a852"/><path d="M416.0025,99.2532c-6.7947,0-11.6033-3.0838-14.7393-9.199l40.6115-16.7778-1.3589-3.45c-2.5089-6.7947-10.2444-19.3388-25.9768-19.3388-15.6279,0-28.6424,12.2827-28.6424,30.3672,0,17.039,12.8577,30.3672,30.1059,30.3672A30.2957,30.2957,0,0,0,441.3,97.79L430.9508,90.89c-3.45,5.0177-8.1536,8.3628-14.9484,8.3628Zm-.9408-37.371c5.3835,0,9.983,2.77,11.4988,6.69l-27.44,11.342C399.12,67.1612,408.1624,61.8822,415.0617,61.8822Z" fill="#ea4535"/></svg>