<svg xmlns="http://www.w3.org/2000/svg" viewBox="0 0 411.5642 412.6047"><title>logo</title><path d="M389.6524,358.2021a9.1924,9.1924,0,0,0-.59-1.1718c-7.886-14.4432-22.88-23.5407-39.6533-21.5016-13.3965,1.6286-23.4581,9.839-30.6069,20.37-6.1518-9.69-14.8186-17.6521-26.3464-20.6221-14.4287-3.7174-29.721,1.7682-39.1311,13.1611-9.6548,11.6891-13.5181,29.3189-10.6792,44.1169,3.2006,16.6844,16.4982,27.7835,30.2122,36.3168,4.9164,3.0592,9.8377,6.1182,14.5832,9.44a97.2936,97.2936,0,0,1,13.474,11.0294q2.4382,2.4624,4.7973,5.0015c.7821.8417,1.5944,1.6628,2.3877,2.4856a34.4707,34.4707,0,0,1,2.344,2.95c1.7144,2.2274,3.2318,4.6262,5.0349,6.77.5881.6792,1.2161,1.9193,2.2262,2.0121a1.4408,1.4408,0,0,0,.959-.3072c1.186-.866,1.9175-2.3494,2.78-3.5033a66.3668,66.3668,0,0,1,5.3478-5.9907c2.1034-2.1989,4.289-4.326,6.3963-6.5126,2.0809-2.1592,4.1916-4.2911,6.3843-6.3374,1.6881-1.5754,3.4256-3.097,5.2265-4.5423a141.2811,141.2811,0,0,1,14.1236-9.7259c6.5229-4.0314,13.1756-7.93,19.0788-12.8589,7.7438-6.4657,13.8573-14.814,16.0894-24.7728C396.7388,382.1943,394.7775,369.0992,389.6524,358.2021Z" transform="translate(-110.3429 -180.5346)" fill="red"/><path d="M492.8481,438.0194c-9.2287,13.9682-19.4856,27.5218-32.4478,38.258-12.6642,10.4893-27.9394,17.7889-43.7541,22.0931a121.65,121.65,0,0,1-74.5589-2.7812A127.3624,127.3624,0,0,1,319.87,485.1742a120.01,120.01,0,0,1-19.2358-14.2271,128.0477,128.0477,0,0,1-16.2633-17.9,76.542,76.542,0,0,1-7.0047-10.7q-3.5166-6.7887-6.6094-13.7861a116.2108,116.2108,0,0,1-6.9952-20.4284c-1.0193-4.3622-1.7471-8.7859-2.7407-13.1536a45.3406,45.3406,0,0,0-4.4625-12.3838,21.9987,21.9987,0,0,0-8.9507-8.8415,24.7363,24.7363,0,0,0-7.7148-2.5942c-8.37-1.3293-16.227,1.9309-22.2271,7.69a19.78,19.78,0,0,0-5.6008,11.8079q-.02.1407-.0394.2814c-1.01,7.4319.1039,14.7254,1.5647,22.01,1.3469,6.7161,3.6608,13.304,4.2073,20.1605a4.6524,4.6524,0,0,1-.2674,2.445,3.05,3.05,0,0,1-2.3652,1.55,5.2089,5.2089,0,0,1-4.4186-1.6689,11.5157,11.5157,0,0,1-1.9939-4.125c-3.73-11.6985-5.0136-23.8818-7.2218-35.8907-1.0731-5.8368-2.7453-11.3942-7.2474-15.543-5.8107-5.3547-13.5174-6.18-21.0342-4.9739-9.3554,1.5026-16.5108,9.2467-17.273,18.0231-1.363,15.6949,4.3225,30.0954,8.2547,44.9786.4884,1.8485.7431,4.1455-1.099,5.3631-4.4524,2.9428-6.3046-4.2922-7.043-7.0842-1.7626-6.6655-3.9244-13.1049-5.1663-19.9132-1.0288-5.67-1.8208-10.1193-5.2082-14.99-4.9891-7.1763-13.5194-8.2765-20.4684-3.2335-9.8213,7.1276-13.0112,18.616-12.9,30.1169a69.0215,69.0215,0,0,0,.9488,10.528c2.2854,13.8409,6.0357,27.0435,12.74,39.4477,13.88,25.6806,31.74,47.9744,54.1947,66.39,28.2381,23.1591,61.8366,37.1017,97.59,43.6127,36.6707,6.6781,75.543,1.906,110.2316-11.426a210.0587,210.0587,0,0,0,85.1005-60.6253A203.0551,203.0551,0,0,0,516.7743,422.08a195.6756,195.6756,0,0,0,3.0311-32.3048C512.6761,406.9245,503.0545,422.5715,492.8481,438.0194Z" transform="translate(-110.3429 -180.5346)" fill="#fff" stroke="#60c0b2" stroke-miterlimit="10" stroke-width="4"/><path d="M139.3,333.6545c9.2288-13.9682,19.4856-27.5219,32.4479-38.258,12.6642-10.4893,27.9393-17.7889,43.754-22.0931a121.65,121.65,0,0,1,74.5589,2.7812A127.3556,127.3556,0,0,1,312.2783,286.5a120.01,120.01,0,0,1,19.2359,14.2271,128.0408,128.0408,0,0,1,16.2632,17.9,76.5241,76.5241,0,0,1,7.0047,10.7q3.5166,6.7887,6.6095,13.7861a116.21,116.21,0,0,1,6.9951,20.4284c1.0194,4.3622,1.7472,8.7859,2.7408,13.1536a45.3341,45.3341,0,0,0,4.4625,12.3838,21.9987,21.9987,0,0,0,8.9507,8.8415,24.7363,24.7363,0,0,0,7.7148,2.5942c8.37,1.3293,16.227-1.9309,22.227-7.69a19.779,19.779,0,0,0,5.6008-11.8079q.02-.1407.0395-.2814c1.01-7.4319-.104-14.7254-1.5647-22.01-1.3469-6.7161-3.6609-13.304-4.2074-20.1605a4.6534,4.6534,0,0,1,.2675-2.445,3.05,3.05,0,0,1,2.3652-1.55,5.2089,5.2089,0,0,1,4.4186,1.6689,11.5155,11.5155,0,0,1,1.9938,4.125c3.7305,11.6985,5.0137,23.8818,7.2218,35.8907,1.0732,5.8368,2.7454,11.3942,7.2475,15.543,5.8107,5.3547,13.5174,6.18,21.0342,4.9739,9.3554-1.5026,16.5108-9.2467,17.273-18.0231,1.363-15.6949-4.3225-30.0954-8.2547-44.9786-.4884-1.8485-.7431-4.1455,1.099-5.3631,4.4524-2.9428,6.3046,4.2922,7.0429,7.0842,1.7627,6.6655,3.9245,13.1049,5.1664,19.9131,1.0288,5.67,1.8208,10.1194,5.2081,14.99,4.9892,7.1763,13.5195,8.2765,20.4685,3.2335,9.8213-7.1276,13.0112-18.616,12.9-30.1169a69.0088,69.0088,0,0,0-.9487-10.528c-2.2854-13.8409-6.0357-27.0436-12.74-39.4477-13.88-25.6806-31.74-47.9744-54.1947-66.39-28.2381-23.1591-61.8367-37.1017-97.59-43.6127-36.6707-6.6781-75.543-1.906-110.2316,11.426a210.0587,210.0587,0,0,0-85.1005,60.6253,203.0541,203.0541,0,0,0-43.6233,94.0107,195.6756,195.6756,0,0,0-3.0311,32.3048C119.4722,364.7494,129.0938,349.1024,139.3,333.6545Z" transform="translate(-110.3429 -180.5346)" fill="#60c0b2"/></svg>