<svg xmlns="http://www.w3.org/2000/svg" viewBox="0 0 411.5642 412.6047">
    <title>logo</title>
    <path d="M389.6524,358.2021a9.1924,9.1924,0,0,0-.59-1.1718c-7.886-14.4432-22.88-23.5407-39.6533-21.5016-13.3965,1.6286-23.4581,9.839-30.6069,20.37-6.1518-9.69-14.8186-17.6521-26.3464-20.6221-14.4287-3.7174-29.721,1.7682-39.1311,13.1611-9.6548,11.6891-13.5181,29.3189-10.6792,44.1169,3.2006,16.6844,16.4982,27.7835,30.2122,36.3168,4.9164,3.0592,9.8377,6.1182,14.5832,9.44a97.2936,97.2936,0,0,1,13.474,11.0294q2.4382,2.4624,4.7973,5.0015c.7821.8417,1.5944,1.6628,2.3877,2.4856a34.4707,34.4707,0,0,1,2.344,2.95c1.7144,2.2274,3.2318,4.6262,5.0349,6.77.5881.6792,1.2161,1.9193,2.2262,2.0121a1.4408,1.4408,0,0,0,.959-.3072c1.186-.866,1.9175-2.3494,2.78-3.5033a66.3668,66.3668,0,0,1,5.3478-5.9907c2.1034-2.1989,4.289-4.326,6.3963-6.5126,2.0809-2.1592,4.1916-4.2911,6.3843-6.3374,1.6881-1.5754,3.4256-3.097,5.2265-4.5423a141.2811,141.2811,0,0,1,14.1236-9.7259c6.5229-4.0314,13.1756-7.93,19.0788-12.8589,7.7438-6.4657,13.8573-14.814,16.0894-24.7728C396.7388,382.1943,394.7775,369.0992,389.6524,358.2021Z" transform="translate(-110.3429 -180.5346)" fill="red" />
</svg>